<?xml version="1.0" encoding="utf-8"?>
<svg xmlns="http://www.w3.org/2000/svg" xmlns:xlink="http://www.w3.org/1999/xlink" style="margin: auto; background: none; display: block; shape-rendering: auto;" width="204px" height="204px" viewBox="0 0 100 100" preserveAspectRatio="xMidYMid">
<g transform="rotate(0 50 50)">
  <rect x="49" y="25" rx="1" ry="2.2800000000000002" width="2" height="12" fill="#61dafb">
    <animate attributeName="opacity" values="1;0" keyTimes="0;1" dur="1.0416666666666665s" begin="-0.9672619047619047s" repeatCount="indefinite"></animate>
  </rect>
</g><g transform="rotate(25.714285714285715 50 50)">
  <rect x="49" y="25" rx="1" ry="2.2800000000000002" width="2" height="12" fill="#61dafb">
    <animate attributeName="opacity" values="1;0" keyTimes="0;1" dur="1.0416666666666665s" begin="-0.8928571428571428s" repeatCount="indefinite"></animate>
  </rect>
</g><g transform="rotate(51.42857142857143 50 50)">
  <rect x="49" y="25" rx="1" ry="2.2800000000000002" width="2" height="12" fill="#61dafb">
    <animate attributeName="opacity" values="1;0" keyTimes="0;1" dur="1.0416666666666665s" begin="-0.8184523809523808s" repeatCount="indefinite"></animate>
  </rect>
</g><g transform="rotate(77.14285714285714 50 50)">
  <rect x="49" y="25" rx="1" ry="2.2800000000000002" width="2" height="12" fill="#61dafb">
    <animate attributeName="opacity" values="1;0" keyTimes="0;1" dur="1.0416666666666665s" begin="-0.744047619047619s" repeatCount="indefinite"></animate>
  </rect>
</g><g transform="rotate(102.85714285714286 50 50)">
  <rect x="49" y="25" rx="1" ry="2.2800000000000002" width="2" height="12" fill="#61dafb">
    <animate attributeName="opacity" values="1;0" keyTimes="0;1" dur="1.0416666666666665s" begin="-0.6696428571428571s" repeatCount="indefinite"></animate>
  </rect>
</g><g transform="rotate(128.57142857142858 50 50)">
  <rect x="49" y="25" rx="1" ry="2.2800000000000002" width="2" height="12" fill="#61dafb">
    <animate attributeName="opacity" values="1;0" keyTimes="0;1" dur="1.0416666666666665s" begin="-0.5952380952380952s" repeatCount="indefinite"></animate>
  </rect>
</g><g transform="rotate(154.28571428571428 50 50)">
  <rect x="49" y="25" rx="1" ry="2.2800000000000002" width="2" height="12" fill="#61dafb">
    <animate attributeName="opacity" values="1;0" keyTimes="0;1" dur="1.0416666666666665s" begin="-0.5208333333333333s" repeatCount="indefinite"></animate>
  </rect>
</g><g transform="rotate(180 50 50)">
  <rect x="49" y="25" rx="1" ry="2.2800000000000002" width="2" height="12" fill="#61dafb">
    <animate attributeName="opacity" values="1;0" keyTimes="0;1" dur="1.0416666666666665s" begin="-0.4464285714285714s" repeatCount="indefinite"></animate>
  </rect>
</g><g transform="rotate(205.71428571428572 50 50)">
  <rect x="49" y="25" rx="1" ry="2.2800000000000002" width="2" height="12" fill="#61dafb">
    <animate attributeName="opacity" values="1;0" keyTimes="0;1" dur="1.0416666666666665s" begin="-0.3720238095238095s" repeatCount="indefinite"></animate>
  </rect>
</g><g transform="rotate(231.42857142857142 50 50)">
  <rect x="49" y="25" rx="1" ry="2.2800000000000002" width="2" height="12" fill="#61dafb">
    <animate attributeName="opacity" values="1;0" keyTimes="0;1" dur="1.0416666666666665s" begin="-0.2976190476190476s" repeatCount="indefinite"></animate>
  </rect>
</g><g transform="rotate(257.14285714285717 50 50)">
  <rect x="49" y="25" rx="1" ry="2.2800000000000002" width="2" height="12" fill="#61dafb">
    <animate attributeName="opacity" values="1;0" keyTimes="0;1" dur="1.0416666666666665s" begin="-0.2232142857142857s" repeatCount="indefinite"></animate>
  </rect>
</g><g transform="rotate(282.85714285714283 50 50)">
  <rect x="49" y="25" rx="1" ry="2.2800000000000002" width="2" height="12" fill="#61dafb">
    <animate attributeName="opacity" values="1;0" keyTimes="0;1" dur="1.0416666666666665s" begin="-0.1488095238095238s" repeatCount="indefinite"></animate>
  </rect>
</g><g transform="rotate(308.57142857142856 50 50)">
  <rect x="49" y="25" rx="1" ry="2.2800000000000002" width="2" height="12" fill="#61dafb">
    <animate attributeName="opacity" values="1;0" keyTimes="0;1" dur="1.0416666666666665s" begin="-0.0744047619047619s" repeatCount="indefinite"></animate>
  </rect>
</g><g transform="rotate(334.2857142857143 50 50)">
  <rect x="49" y="25" rx="1" ry="2.2800000000000002" width="2" height="12" fill="#61dafb">
    <animate attributeName="opacity" values="1;0" keyTimes="0;1" dur="1.0416666666666665s" begin="0s" repeatCount="indefinite"></animate>
  </rect>
</g>
<!-- [ldio] generated by https://loading.io/ --></svg>